<svg width="995" height="225" viewBox="0 0 995 225" fill="none" xmlns="http://www.w3.org/2000/svg">
<g clip-path="url(#clip0_4140_4051)">
<path d="M338.236 181.564H314.836V45.6631H343.681L386.378 153.602L428.898 45.6631H457.769V181.564H434.369V85.8534L396.533 181.564H376.046L338.236 86.0551V181.564Z" fill="#D2B999"/>
<path d="M573.402 163.712C570.085 163.712 568.337 162.149 568.337 159.249V112.654C568.337 87.0376 548.837 75.5654 525.058 75.5654C501.278 75.5654 478.637 87.5923 476.713 112.453H499.91C501.278 99.846 513.18 94.3999 524.678 94.3999C536.175 94.3999 545.545 99.0644 545.925 111.091C545.925 113.613 544.558 115.756 542.025 117.117C539.493 118.68 535.213 119.84 529.363 120.42C515.13 121.782 499.328 123.521 486.665 130.506C478.485 134.968 474.383 142.532 474.383 153.425C474.383 175.36 494.263 183.706 513.585 183.706C530.553 183.706 542.05 177.882 548.483 166.031C548.685 167.191 549.065 168.351 549.471 169.536C551.8 178.663 559.6 181.563 568.186 181.563H579.1V163.712H573.453H573.402ZM545.9 142.936C545.9 158.467 532.25 165.653 518.22 165.653C508.85 165.653 497.555 162.93 497.555 151.483C497.555 146.642 499.505 143.138 503.405 141.398C507.102 139.658 513.155 138.297 521.158 137.313C528.172 136.355 533.643 135.372 537.543 134.212C541.443 133.254 544.178 131.312 545.925 128.589V142.961L545.9 142.936Z" fill="#D2B999"/>
<path d="M647.68 75.5654C632.865 75.5654 618.633 82.5496 611.036 95.5597L608.706 78.6667H590.168V220.392H613.365V167.191C620.786 178.638 634.03 184.462 647.478 184.462C678.095 184.462 694.278 158.064 694.278 129.522C694.278 100.981 678.475 75.5654 647.68 75.5654ZM642.413 165.073C622.71 165.073 613.365 146.642 613.365 128.968C613.365 111.293 623.318 95.005 642.236 95.005C661.153 95.005 670.701 111.898 670.701 129.573C670.701 147.247 662.115 165.099 642.438 165.099L642.413 165.073Z" fill="#D2B999"/>
<path d="M737.581 53.2267C725.678 56.328 723.551 58.4711 720.411 70.3215C720.208 70.9014 720.031 71.2796 719.423 71.2796C718.815 71.2796 718.638 70.9014 718.461 70.3215C715.346 58.4711 713.193 56.3532 701.29 53.2267C700.708 53.025 700.328 52.8485 700.328 52.2434C700.328 51.6383 700.708 51.4618 701.29 51.2853C713.193 48.184 715.32 46.0409 718.461 34.1905C718.663 33.6106 718.84 33.2324 719.423 33.2324C720.005 33.2324 720.208 33.6106 720.411 34.1905C723.526 46.0409 725.678 48.1588 737.581 51.2853C738.163 51.487 738.543 51.6635 738.543 52.2434C738.543 52.8233 738.163 53.025 737.581 53.2267Z" fill="#D2B999"/>
<path d="M730.748 78.8691H708.133V181.362H730.748V78.8691Z" fill="#D2B999"/>
<path d="M744.594 129.346C744.594 97.123 765.664 75.5654 797.446 75.5654C824.341 75.5654 844.829 91.2986 846.779 118.479H824.164C822.214 104.107 811.882 95.1815 797.269 95.1815C777.187 95.1815 768.019 111.091 768.019 129.346C768.019 147.6 777.567 164.872 798.054 164.872C812.869 164.872 822.037 155.164 824.189 141.196H846.804C844.069 168.175 825.152 184.488 798.054 184.488C764.904 184.488 744.619 160.812 744.619 129.346H744.594Z" fill="#D2B999"/>
<path d="M954.41 163.712C951.093 163.712 949.345 162.149 949.345 159.249V112.654C949.345 87.0376 929.845 75.5654 906.065 75.5654C882.285 75.5654 859.645 87.5923 857.721 112.453H880.918C882.286 99.846 894.188 94.3999 905.686 94.3999C917.183 94.3999 926.553 99.0644 926.933 111.091C926.933 113.613 925.565 115.756 923.033 117.117C920.501 118.68 916.221 119.84 910.371 120.42C896.138 121.782 880.335 123.521 867.673 130.506C859.493 134.968 855.391 142.532 855.391 153.425C855.391 175.36 875.271 183.706 894.593 183.706C911.561 183.706 923.058 177.882 929.491 166.031C929.693 167.191 930.073 168.351 930.478 169.536C932.808 178.663 940.608 181.563 949.193 181.563H960.108V163.712H954.461H954.41ZM926.908 142.936C926.908 158.467 913.258 165.653 899.228 165.653C889.858 165.653 878.563 162.93 878.563 151.483C878.563 146.642 880.513 143.138 884.413 141.398C888.11 139.658 894.163 138.297 902.165 137.313C909.18 136.355 914.65 135.372 918.55 134.212C922.45 133.254 925.186 131.312 926.933 128.589V142.961L926.908 142.936Z" fill="#D2B999"/>
<path d="M994.399 35.9551H971.379V181.563H994.399V35.9551Z" fill="#D2B999"/>
<path d="M234.178 24.1045L195.583 3.60597C186.516 -1.2098 175.627 -1.2098 166.561 3.60597L137.741 18.961C128.65 23.802 117.76 23.802 108.668 18.961L79.8488 3.63119C70.7826 -1.2098 59.8929 -1.2098 50.8267 3.63119L12.2065 24.1045C4.68507 28.1135 0 35.9044 0 44.4266V194.22C0 206.827 10.2818 217.063 22.9442 217.063C26.6669 217.063 30.339 216.156 33.6312 214.441L50.928 205.389C59.9689 200.649 70.7572 200.675 79.7728 205.465L108.668 220.82C117.735 225.636 128.599 225.636 137.665 220.82L166.561 205.465C175.576 200.675 186.365 200.649 195.405 205.389L212.702 214.441C215.994 216.181 219.667 217.063 223.389 217.063C236.052 217.063 246.333 206.852 246.333 194.22L246.384 44.4014C246.384 35.9044 241.674 28.0883 234.152 24.1045H234.178ZM217.59 70.926C193.607 77.1789 189.302 81.4904 182.996 105.368C182.616 106.527 182.211 107.334 181.021 107.334C179.831 107.334 179.451 106.553 179.046 105.368C172.765 81.4904 168.435 77.2041 144.477 70.926C143.287 70.5226 142.502 70.1444 142.502 68.9593C142.502 67.7743 143.287 67.3961 144.477 66.9927C168.435 60.7397 172.765 56.4282 179.046 32.551C179.451 31.366 179.831 30.5844 181.021 30.5844C182.211 30.5844 182.591 31.366 182.996 32.551C189.277 56.403 193.607 60.7145 217.59 66.9927C218.755 67.3961 219.565 67.7743 219.565 68.9593C219.565 70.1444 218.78 70.5226 217.59 70.926Z" fill="#D2B999"/>
</g>
<defs>
<clipPath id="clip0_4140_4051">
<rect width="994.4" height="224.4" fill="white"/>
</clipPath>
</defs>
</svg>
