<svg width="512" height="513" viewBox="0 0 512 513" fill="none" xmlns="http://www.w3.org/2000/svg">
<path d="M344.902 84.5845C352.53 84.5845 360.117 86.4086 367.04 90.0981L425.906 121.521C437.389 127.656 444.56 139.637 444.56 152.654C444.56 165.66 444.478 381.881 444.478 382.233C444.478 401.551 428.808 417.221 409.49 417.221C403.811 417.221 398.214 415.854 393.198 413.201L366.832 399.313C359.992 395.665 352.571 393.882 344.944 393.882C337.316 393.882 329.729 395.706 322.806 399.396L278.698 422.901C271.775 426.59 264.189 428.415 256.561 428.415C248.933 428.415 241.346 426.59 234.423 422.901L190.315 399.396C183.392 395.707 175.682 393.882 168.178 393.882C160.675 393.882 153.13 395.706 146.29 399.313L119.924 413.201C114.908 415.854 109.312 417.221 103.632 417.221C84.3142 417.221 68.644 401.551 68.644 382.233L68.561 152.654C68.5611 139.595 75.7333 127.656 87.2163 121.521L146.083 90.0981C153.005 86.4087 160.633 84.5845 168.219 84.5845C175.847 84.5845 183.475 86.4497 190.398 90.1392L234.382 113.645C241.305 117.334 248.933 119.2 256.561 119.2C264.189 119.2 271.817 117.334 278.74 113.645L322.723 90.1392C329.646 86.4497 337.274 84.5845 344.902 84.5845ZM344.861 129.853C341.627 129.853 340.756 132.548 340.217 134.124C330.683 170.438 324.34 176.781 287.943 186.357C286.492 186.854 283.755 187.725 283.755 190.958C283.755 194.192 286.491 195.062 288.025 195.601C324.34 205.136 330.683 211.479 340.259 247.917L340.264 247.934C340.763 249.389 341.681 252.063 344.861 252.063C348.045 252.063 348.938 249.45 349.479 247.866L349.503 247.793C359.038 211.479 365.381 205.136 401.82 195.56L401.836 195.554C403.291 195.055 405.965 194.138 405.965 190.958C405.965 187.776 403.288 186.859 401.71 186.32L401.696 186.315C365.381 176.78 359.039 170.438 349.462 134.041C348.965 132.59 348.094 129.853 344.861 129.853Z" fill="#F56900"/>
</svg>
